<?xml version="1.0" encoding="UTF-8" standalone="no"?>
<svg
   version="1.1"
   id="Layer_1"
   x="0px"
   y="0px"
   width="100%"
   viewBox="0 0 848 848"
   enable-background="new 0 0 848 848"
   xml:space="preserve"
   sodipodi:docname="Logo.svg"
   inkscape:version="1.4 (86a8ad7, 2024-10-11)"
   xmlns:inkscape="http://www.inkscape.org/namespaces/inkscape"
   xmlns:sodipodi="http://sodipodi.sourceforge.net/DTD/sodipodi-0.dtd"
   xmlns="http://www.w3.org/2000/svg"
   xmlns:svg="http://www.w3.org/2000/svg"><defs
   id="defs1" /><sodipodi:namedview
   id="namedview1"
   pagecolor="#ffffff"
   bordercolor="#000000"
   borderopacity="0.25"
   inkscape:showpageshadow="2"
   inkscape:pageopacity="0.0"
   inkscape:pagecheckerboard="0"
   inkscape:deskcolor="#d1d1d1"
   inkscape:zoom="0.73054246"
   inkscape:cx="254.60533"
   inkscape:cy="652.25504"
   inkscape:window-width="2560"
   inkscape:window-height="1520"
   inkscape:window-x="-11"
   inkscape:window-y="-11"
   inkscape:window-maximized="1"
   inkscape:current-layer="Layer_1"
   showguides="true"
   showgrid="false" />
<path
   fill="#000000"
   opacity="1"
   stroke="none"
   d="m 402.95836,626.60113 c -18.90407,15.4935 -40.70564,27.9311 -62.3091,38.3449 0,-3.48344 -0.001,-5.06237 -0.003,-7.12737 -0.0422,-58.52501 -0.0337,-117.04996 -0.039,-175.57497 -6.7e-4,-7.38665 -0.0148,-7.39752 -7.42625,-7.40198 -14.67293,-0.009 -29.34676,-0.0944 -44.01826,0.0493 -4.4194,0.0432 -5.79753,-1.11952 -4.90603,-5.87111 1.47599,-7.86727 4.16573,-15.02687 8.85797,-21.49634 1.70343,-2.34859 3.65653,-3.41541 6.68531,-3.4214 45.51205,-0.0896 91.02686,-0.6737 136.53451,-0.31558 22.50238,0.17709 45.00643,0.077 67.50749,0.36911 2.69075,0.0349 5.32593,-0.14928 7.90987,-0.91199 5.82733,-1.72004 10.2129,-7.57888 9.76351,-13.04323 -0.51747,-6.29079 -5.57952,-11.55913 -11.94802,-12.26734 -1.97884,-0.22005 -3.9975,-0.10583 -5.99789,-0.10564 -60.52583,0.005 -121.05169,0.0166 -181.57753,0.0241 -9.24653,0.001 -9.09032,-0.0675 -12.57599,-8.78173 -1.33218,-3.33053 -0.69246,-8.24721 -4.08128,-9.72791 -2.99308,-1.30775 -6.42834,1.95582 -9.82678,2.6495 -4.72512,0.96447 -9.43174,2.07804 -14.19882,2.76081 -4.29323,0.61494 -6.50715,-1.56014 -6.73904,-5.94763 -0.28399,-5.37309 0.57695,-10.62225 1.63964,-15.82209 0.78623,-3.84694 0.18897,-6.01249 -4.09437,-7.40802 -12.97931,-4.22863 -12.9121,-4.43488 -7.83979,-17.37088 2.59527,-6.61872 2.59729,-6.62177 -3.52112,-10.67569 -5.42286,-3.59296 -10.73886,-7.30521 -15.313,-11.99934 -2.21339,-2.27147 -2.60897,-4.14353 -0.4353,-6.88945 3.88607,-4.90914 8.7783,-8.59004 13.60715,-12.3996 1.54481,-1.21872 3.5689,-1.87301 4.66461,-4.01032 -2.58055,-5.04114 -5.15555,-10.23469 -7.88272,-15.34709 -2.15447,-4.03884 -0.92469,-6.68452 3.09934,-8.30432 3.38625,-1.36311 6.80905,-2.63548 10.66356,-4.1206 -1.37346,-5.43547 -2.83492,-10.8292 -4.07779,-16.27285 -0.85004,-3.72304 -1.53926,-7.49657 -2.04055,-11.28195 -0.62318,-4.70567 0.85703,-6.12802 5.55064,-5.61351 8.15282,0.89376 16.02772,2.90039 23.61762,6.02094 1.81613,0.74672 3.65651,1.43438 5.8484,2.29095 0.88036,-5.14868 1.68362,-9.85007 2.48819,-14.55126 5.46271,-31.91945 30.31625,-56.18112 62.4361,-61.16959 3.48667,-0.54153 6.9303,-0.82436 10.42651,-0.82445 74.6986,-0.002 149.39721,-0.003 224.09579,0.003 7.05677,5.2e-4 7.27056,0.25284 6.76469,7.3694 -3.65833,51.46789 -41.77412,93.24068 -92.3885,101.08242 -5.57336,0.8635 -11.21408,1.31865 -16.91054,1.30791 -44.68556,-0.0843 -89.3714,-0.0368 -134.05717,-0.0214 -9.50756,0.003 -14.16206,7.79032 -9.78709,16.37841 1.79329,3.52026 5.01647,3.92995 8.51433,3.92455 21.00891,-0.0324 42.01789,-0.0217 63.02687,-0.001 11.79732,0.0117 19.6357,7.87154 19.66248,19.75734 0.0379,16.84043 0.01,33.68101 0.0249,50.52154 0.006,6.32089 0.37488,6.73602 6.87699,6.75086 19.84171,0.0453 39.68457,-0.087 59.52506,0.0737 17.84454,0.14451 35.01462,14.72007 40.08247,33.68398 4.71068,17.62748 -2.3798,35.74174 -17.71569,45.04418 -6.88604,4.17696 -14.52629,5.72852 -22.46638,5.75857 -19.67475,0.0744 -39.35002,0.022 -59.02511,0.0269 -8.16744,0.002 -8.19244,0.009 -8.19727,8.44162 -0.0149,26.17782 -0.26261,52.35907 0.0967,78.53195 0.17673,12.87402 -3.53043,24.23337 -10.47737,34.7919 -7.58872,11.53393 -17.1582,21.22086 -28.0943,30.12023 M 326.72119,336.77948 c 1.83964,-1.99618 5.98037,-3.60963 1.99084,-6.95619 -11.13059,-9.337 -23.20674,-16.86907 -38.32564,-17.35 -16.60677,-0.52819 -28.91832,7.84525 -40.18491,19.39076 5.26397,5.33993 10.77721,9.20521 16.85348,12.32834 11.45107,5.88576 23.16228,10.40277 36.26299,5.96704 8.41774,-2.85012 16.11971,-7.06596 23.40324,-13.37995 m -8.13638,-49.5036 c -11.19979,-18.22776 -28.27096,-26.44392 -49.30663,-29.48958 2.15236,16.87017 7.55678,31.65598 15.69387,45.48715 1.26012,2.14185 3.37099,2.8737 5.95899,2.92804 8.65059,0.18155 16.41218,3.33392 24.11015,7.08154 5.31664,2.58824 9.79145,6.52625 15.74666,9.74519 -1.37469,-13.33391 -5.49627,-24.6012 -12.20304,-35.75234 m -15.85302,69.97711 c -2.21725,0.32995 -3.82807,0.61393 -5.74613,0.5466 -4.85195,-0.17031 -7.2684,1.58079 -9.08053,5.78098 -3.93658,9.1241 -6.22337,18.58878 -6.60314,28.48426 -0.25098,6.54073 0.47851,7.02794 6.73279,5.61549 24.93212,-5.63079 38.68067,-20.41822 42.48798,-45.90933 0.48691,-3.26003 2.01652,-6.57957 0.41696,-10.37924 -8.52697,6.70323 -14.69309,12.6148 -25.898,15.30515 m 6.59181,-86.48926 c 12.983,11.47467 19.27541,26.79926 24.18208,42.92125 6.1642,-30.90456 -11.60144,-57.62169 -28.41169,-68.9153 -2.58491,5.77817 -2.31048,11.97471 -3.07072,17.96505 -0.20802,1.63889 1.03567,2.69636 2.24807,3.6645 1.55218,1.23939 3.03562,2.56492 5.05226,4.3645 m 8.56494,137.01397 c 16.38563,-16.45034 24.24364,-42.28687 16.83009,-55.33597 -0.13688,0.0647 -0.37112,0.10351 -0.39619,0.19792 -0.46523,1.74981 -0.91901,3.50295 -1.34895,5.2618 -3.34247,13.67459 -9.1905,25.82969 -20.73723,34.60821 -1.21854,0.92643 -2.81486,1.73527 -2.48447,3.92482 0.73542,4.87354 1.43578,9.72418 4.01282,13.93693 1.80465,-0.14399 2.64141,-1.24546 4.12393,-2.59371 M 277.44431,301.3634 c -0.81227,-1.44976 -1.6439,-2.88909 -2.43342,-4.35119 -3.0873,-5.71756 -5.75286,-6.39921 -11.40915,-3.06846 -1.60209,0.94334 -2.08036,2.08622 -1.30006,3.70013 1.95151,4.03627 3.44683,8.77538 7.01244,11.28952 2.65728,1.87365 6.52837,-0.95023 9.00732,-2.27467 0.21825,-0.1166 0.85958,-0.91624 0.78098,-1.4636 -0.22116,-1.54026 -0.6392,-1.90843 -1.65811,-3.83173 m 3.48402,62.84747 c 0.67517,-2.13135 1.56427,-3.66658 0.88144,-5.3345 -0.61304,-1.49741 -2.38498,-2.35558 -3.92261,-2.85932 -1.96623,-0.64416 -5.22917,-1.64305 -6.20714,-0.0205 -1.87133,3.10477 -1.89014,5.21627 -3.08361,8.4563 -0.45549,1.23649 -0.64736,2.50361 0.63719,3.60117 4.40087,3.76032 9.29328,2.44743 11.69473,-3.84317 z"
   id="path1"
   style="fill:#217037;fill-opacity:1;stroke-width:1.0005"
   sodipodi:nodetypes="cccscssscsssssccsssssssssssscsscsssscsssscsscsssscssssssssscccscsscccssscccssscscccccsscccccssccccsssssccaassscc" />
</svg>
